<svg xmlns="http://www.w3.org/2000/svg" xmlns:xlink="http://www.w3.org/1999/xlink" width="112" zoomAndPan="magnify" viewBox="0 0 84 83.999999" height="112" preserveAspectRatio="xMidYMid meet" version="1.0"><defs><g/><clipPath id="82880898a4"><path d="M 50.636719 22.308594 L 84 22.308594 L 84 58.910156 L 50.636719 58.910156 Z M 50.636719 22.308594 " clip-rule="nonzero"/></clipPath><clipPath id="99306c552a"><path d="M 77.820312 38.546875 L 81.699219 38.546875 L 81.699219 42.425781 L 77.820312 42.425781 Z M 77.820312 38.546875 " clip-rule="nonzero"/></clipPath><clipPath id="692a515788"><path d="M 17.351562 21.0625 L 47.40625 21.0625 L 47.40625 45.296875 L 17.351562 45.296875 Z M 17.351562 21.0625 " clip-rule="nonzero"/></clipPath></defs><rect x="-8.4" width="100.8" fill="#ffffff" y="-8.4" height="100.799999" fill-opacity="1"/><rect x="-8.4" width="100.8" fill="#ffffff" y="-8.4" height="100.799999" fill-opacity="1"/><g clip-path="url(#82880898a4)"><path fill="#1c2120" d="M 50.636719 22.308594 L 84 22.308594 L 84 58.929688 L 50.636719 58.929688 Z M 50.636719 22.308594 " fill-opacity="1" fill-rule="nonzero"/></g><g fill="#1c2120" fill-opacity="1"><g transform="translate(1.135708, 50.788289)"><g><path d="M 13.71875 -5.359375 C 13.832031 -5.515625 13.953125 -5.625 14.078125 -5.6875 C 14.203125 -5.757812 14.273438 -5.757812 14.296875 -5.6875 C 14.328125 -5.625 14.257812 -5.460938 14.09375 -5.203125 C 13.726562 -4.648438 13.191406 -4.128906 12.484375 -3.640625 C 11.773438 -3.160156 10.988281 -2.742188 10.125 -2.390625 C 9.269531 -2.046875 8.429688 -1.816406 7.609375 -1.703125 C 6.796875 -1.597656 6.109375 -1.65625 5.546875 -1.875 C 4.984375 -2.09375 4.632812 -2.519531 4.5 -3.15625 C 4.019531 -2.382812 3.453125 -1.78125 2.796875 -1.34375 C 2.140625 -0.90625 1.519531 -0.722656 0.9375 -0.796875 C 0.269531 -0.878906 -0.171875 -1.125 -0.390625 -1.53125 C -0.617188 -1.945312 -0.695312 -2.421875 -0.625 -2.953125 C -0.550781 -3.484375 -0.390625 -3.988281 -0.140625 -4.46875 C 0.046875 -4.832031 0.304688 -5.171875 0.640625 -5.484375 C 0.984375 -5.804688 1.34375 -6.050781 1.71875 -6.21875 C 2.1875 -6.457031 2.648438 -6.566406 3.109375 -6.546875 C 3.578125 -6.523438 4.078125 -6.367188 4.609375 -6.078125 C 4.609375 -6.078125 4.617188 -6.09375 4.640625 -6.125 C 4.640625 -6.175781 4.648438 -6.238281 4.671875 -6.3125 C 4.691406 -6.382812 4.734375 -6.453125 4.796875 -6.515625 C 4.890625 -6.578125 5.007812 -6.628906 5.15625 -6.671875 C 5.300781 -6.710938 5.441406 -6.71875 5.578125 -6.6875 C 5.796875 -6.644531 5.929688 -6.535156 5.984375 -6.359375 C 6.035156 -6.179688 6.046875 -5.988281 6.015625 -5.78125 C 5.984375 -5.570312 5.945312 -5.394531 5.90625 -5.25 C 5.894531 -5.21875 5.890625 -5.1875 5.890625 -5.15625 C 5.660156 -4.257812 5.738281 -3.628906 6.125 -3.265625 C 6.507812 -2.910156 7.066406 -2.742188 7.796875 -2.765625 C 8.523438 -2.796875 9.296875 -2.953125 10.109375 -3.234375 C 10.929688 -3.515625 11.675781 -3.847656 12.34375 -4.234375 C 13.007812 -4.617188 13.46875 -4.992188 13.71875 -5.359375 Z M 1.203125 -2 C 1.492188 -1.800781 1.800781 -1.816406 2.125 -2.046875 C 2.457031 -2.285156 2.78125 -2.625 3.09375 -3.0625 C 3.40625 -3.5 3.660156 -3.929688 3.859375 -4.359375 C 4.066406 -4.796875 4.179688 -5.125 4.203125 -5.34375 C 3.554688 -5.695312 3 -5.757812 2.53125 -5.53125 C 2.070312 -5.3125 1.710938 -4.953125 1.453125 -4.453125 C 1.191406 -3.960938 1.039062 -3.472656 1 -2.984375 C 0.957031 -2.492188 1.023438 -2.164062 1.203125 -2 Z M 1.203125 -2 "/></g></g></g><g fill="#1c2120" fill-opacity="1"><g transform="translate(14.40883, 50.788289)"><g><path d="M 13.6875 -5.625 C 13.957031 -5.75 14.113281 -5.769531 14.15625 -5.6875 C 14.207031 -5.53125 14.0625 -5.242188 13.71875 -4.828125 C 13.382812 -4.410156 12.925781 -3.984375 12.34375 -3.546875 C 10.9375 -2.566406 9.753906 -1.976562 8.796875 -1.78125 C 7.835938 -1.59375 7.050781 -1.65625 6.4375 -1.96875 C 5.832031 -2.28125 5.382812 -2.710938 5.09375 -3.265625 C 4.738281 -3.867188 4.515625 -4.472656 4.421875 -5.078125 C 4.304688 -5.734375 4.144531 -6.101562 3.9375 -6.1875 C 3.738281 -6.28125 3.519531 -6.1875 3.28125 -5.90625 C 3.050781 -5.632812 2.828125 -5.273438 2.609375 -4.828125 C 2.390625 -4.390625 2.207031 -3.960938 2.0625 -3.546875 C 1.925781 -3.128906 1.851562 -2.8125 1.84375 -2.59375 C 1.789062 -2.46875 1.75 -2.347656 1.71875 -2.234375 C 1.664062 -2.066406 1.601562 -1.898438 1.53125 -1.734375 C 1.351562 -1.265625 1.039062 -1.09375 0.59375 -1.21875 C 0.34375 -1.257812 0.203125 -1.410156 0.171875 -1.671875 C 0.148438 -1.847656 0.140625 -2.03125 0.140625 -2.21875 C 0.140625 -2.363281 0.132812 -2.519531 0.125 -2.6875 C 0.09375 -3.800781 0.0625 -4.925781 0.03125 -6.0625 C 0.03125 -6.195312 0.09375 -6.289062 0.21875 -6.34375 C 0.351562 -6.394531 0.503906 -6.414062 0.671875 -6.40625 C 0.847656 -6.40625 1 -6.378906 1.125 -6.328125 C 1.257812 -6.285156 1.332031 -6.222656 1.34375 -6.140625 C 1.375 -5.953125 1.390625 -5.789062 1.390625 -5.65625 C 1.390625 -5.457031 1.398438 -5.316406 1.421875 -5.234375 C 1.453125 -5.148438 1.507812 -5.15625 1.59375 -5.25 C 1.6875 -5.34375 1.84375 -5.53125 2.0625 -5.8125 C 2.40625 -6.351562 2.835938 -6.816406 3.359375 -7.203125 C 3.585938 -7.378906 3.859375 -7.503906 4.171875 -7.578125 C 4.484375 -7.660156 4.78125 -7.671875 5.0625 -7.609375 C 5.375 -7.535156 5.617188 -7.359375 5.796875 -7.078125 C 5.972656 -6.804688 6.101562 -6.492188 6.1875 -6.140625 C 6.28125 -5.796875 6.347656 -5.476562 6.390625 -5.1875 C 6.410156 -5.101562 6.425781 -5.035156 6.4375 -4.984375 C 6.5 -4.578125 6.585938 -4.210938 6.703125 -3.890625 C 6.816406 -3.566406 7.003906 -3.3125 7.265625 -3.125 C 7.523438 -2.9375 7.90625 -2.867188 8.40625 -2.921875 C 9.5 -2.992188 10.363281 -3.21875 11 -3.59375 C 11.644531 -3.96875 12.1875 -4.367188 12.625 -4.796875 C 12.695312 -4.847656 12.753906 -4.898438 12.796875 -4.953125 C 12.898438 -5.023438 12.984375 -5.09375 13.046875 -5.15625 C 13.210938 -5.332031 13.425781 -5.488281 13.6875 -5.625 Z M 13.6875 -5.625 "/></g></g></g><g fill="#1c2120" fill-opacity="1"><g transform="translate(27.329241, 50.788289)"><g><path d="M 13.71875 -5.359375 C 13.832031 -5.515625 13.953125 -5.625 14.078125 -5.6875 C 14.203125 -5.757812 14.273438 -5.757812 14.296875 -5.6875 C 14.328125 -5.625 14.257812 -5.460938 14.09375 -5.203125 C 13.726562 -4.648438 13.191406 -4.128906 12.484375 -3.640625 C 11.773438 -3.160156 10.988281 -2.742188 10.125 -2.390625 C 9.269531 -2.046875 8.429688 -1.816406 7.609375 -1.703125 C 6.796875 -1.597656 6.109375 -1.65625 5.546875 -1.875 C 4.984375 -2.09375 4.632812 -2.519531 4.5 -3.15625 C 4.019531 -2.382812 3.453125 -1.78125 2.796875 -1.34375 C 2.140625 -0.90625 1.519531 -0.722656 0.9375 -0.796875 C 0.269531 -0.878906 -0.171875 -1.125 -0.390625 -1.53125 C -0.617188 -1.945312 -0.695312 -2.421875 -0.625 -2.953125 C -0.550781 -3.484375 -0.390625 -3.988281 -0.140625 -4.46875 C 0.046875 -4.832031 0.304688 -5.171875 0.640625 -5.484375 C 0.984375 -5.804688 1.34375 -6.050781 1.71875 -6.21875 C 2.1875 -6.457031 2.648438 -6.566406 3.109375 -6.546875 C 3.578125 -6.523438 4.078125 -6.367188 4.609375 -6.078125 C 4.609375 -6.078125 4.617188 -6.09375 4.640625 -6.125 C 4.640625 -6.175781 4.648438 -6.238281 4.671875 -6.3125 C 4.691406 -6.382812 4.734375 -6.453125 4.796875 -6.515625 C 4.890625 -6.578125 5.007812 -6.628906 5.15625 -6.671875 C 5.300781 -6.710938 5.441406 -6.71875 5.578125 -6.6875 C 5.796875 -6.644531 5.929688 -6.535156 5.984375 -6.359375 C 6.035156 -6.179688 6.046875 -5.988281 6.015625 -5.78125 C 5.984375 -5.570312 5.945312 -5.394531 5.90625 -5.25 C 5.894531 -5.21875 5.890625 -5.1875 5.890625 -5.15625 C 5.660156 -4.257812 5.738281 -3.628906 6.125 -3.265625 C 6.507812 -2.910156 7.066406 -2.742188 7.796875 -2.765625 C 8.523438 -2.796875 9.296875 -2.953125 10.109375 -3.234375 C 10.929688 -3.515625 11.675781 -3.847656 12.34375 -4.234375 C 13.007812 -4.617188 13.46875 -4.992188 13.71875 -5.359375 Z M 1.203125 -2 C 1.492188 -1.800781 1.800781 -1.816406 2.125 -2.046875 C 2.457031 -2.285156 2.78125 -2.625 3.09375 -3.0625 C 3.40625 -3.5 3.660156 -3.929688 3.859375 -4.359375 C 4.066406 -4.796875 4.179688 -5.125 4.203125 -5.34375 C 3.554688 -5.695312 3 -5.757812 2.53125 -5.53125 C 2.070312 -5.3125 1.710938 -4.953125 1.453125 -4.453125 C 1.191406 -3.960938 1.039062 -3.472656 1 -2.984375 C 0.957031 -2.492188 1.023438 -2.164062 1.203125 -2 Z M 1.203125 -2 "/></g></g></g><g fill="#1c2120" fill-opacity="1"><g transform="translate(40.602364, 50.788289)"><g><path d="M 6.375 -6.375 C 6.53125 -6.382812 6.660156 -6.378906 6.765625 -6.359375 C 6.878906 -6.335938 6.9375 -6.285156 6.9375 -6.203125 C 7 -5.335938 6.976562 -4.257812 6.875 -2.96875 C 6.78125 -1.675781 6.578125 -0.28125 6.265625 1.21875 C 5.953125 2.726562 5.507812 4.234375 4.9375 5.734375 C 4.363281 7.242188 3.632812 8.640625 2.75 9.921875 C 1.875 11.203125 0.8125 12.257812 -0.4375 13.09375 C -1.695312 13.925781 -3.164062 14.429688 -4.84375 14.609375 C -6.101562 14.710938 -7.140625 14.535156 -7.953125 14.078125 C -8.773438 13.617188 -9.21875 12.894531 -9.28125 11.90625 C -9.351562 10.914062 -8.890625 9.6875 -7.890625 8.21875 C -6.890625 6.75 -5.207031 5.050781 -2.84375 3.125 C -1.582031 2.144531 -0.347656 1.273438 0.859375 0.515625 C 2.066406 -0.242188 3.097656 -0.878906 3.953125 -1.390625 C 4.179688 -1.523438 4.390625 -1.644531 4.578125 -1.75 C 5.160156 -2.070312 5.429688 -2.546875 5.390625 -3.171875 C 5.390625 -3.242188 5.390625 -3.34375 5.390625 -3.46875 C 5.378906 -3.644531 5.375 -3.84375 5.375 -4.0625 C 5.019531 -3.5 4.519531 -2.988281 3.875 -2.53125 C 3.238281 -2.070312 2.582031 -1.742188 1.90625 -1.546875 C 1.238281 -1.359375 0.664062 -1.367188 0.1875 -1.578125 C -0.289062 -1.796875 -0.535156 -2.300781 -0.546875 -3.09375 C -0.535156 -3.507812 -0.421875 -3.882812 -0.203125 -4.21875 C 0.316406 -5.132812 1.03125 -5.851562 1.9375 -6.375 C 2.28125 -6.550781 2.691406 -6.679688 3.171875 -6.765625 C 3.660156 -6.859375 4.128906 -6.851562 4.578125 -6.75 C 5.023438 -6.65625 5.382812 -6.445312 5.65625 -6.125 C 5.726562 -6.21875 5.828125 -6.28125 5.953125 -6.3125 C 6.078125 -6.351562 6.195312 -6.375 6.3125 -6.375 C 6.332031 -6.375 6.351562 -6.375 6.375 -6.375 Z M 4.171875 -4.171875 C 4.734375 -4.753906 5.046875 -5.195312 5.109375 -5.5 C 4.972656 -5.75 4.757812 -5.898438 4.46875 -5.953125 C 4.1875 -6.003906 3.894531 -6 3.59375 -5.9375 C 3.289062 -5.882812 3.039062 -5.796875 2.84375 -5.671875 C 2.28125 -5.316406 1.863281 -4.882812 1.59375 -4.375 C 1.332031 -3.875 1.234375 -3.445312 1.296875 -3.09375 C 1.367188 -2.738281 1.632812 -2.613281 2.09375 -2.71875 C 2.5625 -2.832031 3.253906 -3.316406 4.171875 -4.171875 Z M 4.953125 -0.109375 C 4.953125 -0.128906 4.957031 -0.144531 4.96875 -0.15625 C 4.976562 -0.238281 4.988281 -0.34375 5 -0.46875 C 5.007812 -0.601562 5.003906 -0.707031 4.984375 -0.78125 C 4.972656 -0.851562 4.925781 -0.863281 4.84375 -0.8125 C 4.726562 -0.738281 4.613281 -0.660156 4.5 -0.578125 C 3.664062 -0.046875 2.570312 0.691406 1.21875 1.640625 C -0.125 2.597656 -1.488281 3.671875 -2.875 4.859375 C -3.144531 5.109375 -3.535156 5.472656 -4.046875 5.953125 C -4.554688 6.441406 -5.09375 6.992188 -5.65625 7.609375 C -6.226562 8.234375 -6.734375 8.875 -7.171875 9.53125 C -7.617188 10.195312 -7.910156 10.820312 -8.046875 11.40625 C -8.191406 11.988281 -8.101562 12.492188 -7.78125 12.921875 C -7.34375 13.421875 -6.671875 13.632812 -5.765625 13.5625 C -4.859375 13.5 -3.835938 13.160156 -2.703125 12.546875 C -1.578125 11.941406 -0.472656 11.0625 0.609375 9.90625 C 1.703125 8.757812 2.640625 7.347656 3.421875 5.671875 C 4.203125 3.992188 4.710938 2.066406 4.953125 -0.109375 Z M 4.953125 -0.109375 "/></g></g></g><g fill="#1c2120" fill-opacity="1"><g transform="translate(48.872548, 50.788289)"><g/></g></g><g fill="#f8f7f2" fill-opacity="1"><g transform="translate(53.589367, 50.788289)"><g><path d="M 13.71875 -5.359375 C 13.832031 -5.515625 13.953125 -5.625 14.078125 -5.6875 C 14.203125 -5.757812 14.273438 -5.757812 14.296875 -5.6875 C 14.328125 -5.625 14.257812 -5.460938 14.09375 -5.203125 C 13.726562 -4.648438 13.191406 -4.128906 12.484375 -3.640625 C 11.773438 -3.160156 10.988281 -2.742188 10.125 -2.390625 C 9.269531 -2.046875 8.429688 -1.816406 7.609375 -1.703125 C 6.796875 -1.597656 6.109375 -1.65625 5.546875 -1.875 C 4.984375 -2.09375 4.632812 -2.519531 4.5 -3.15625 C 4.019531 -2.382812 3.453125 -1.78125 2.796875 -1.34375 C 2.140625 -0.90625 1.519531 -0.722656 0.9375 -0.796875 C 0.269531 -0.878906 -0.171875 -1.125 -0.390625 -1.53125 C -0.617188 -1.945312 -0.695312 -2.421875 -0.625 -2.953125 C -0.550781 -3.484375 -0.390625 -3.988281 -0.140625 -4.46875 C 0.046875 -4.832031 0.304688 -5.171875 0.640625 -5.484375 C 0.984375 -5.804688 1.34375 -6.050781 1.71875 -6.21875 C 2.1875 -6.457031 2.648438 -6.566406 3.109375 -6.546875 C 3.578125 -6.523438 4.078125 -6.367188 4.609375 -6.078125 C 4.609375 -6.078125 4.617188 -6.09375 4.640625 -6.125 C 4.640625 -6.175781 4.648438 -6.238281 4.671875 -6.3125 C 4.691406 -6.382812 4.734375 -6.453125 4.796875 -6.515625 C 4.890625 -6.578125 5.007812 -6.628906 5.15625 -6.671875 C 5.300781 -6.710938 5.441406 -6.71875 5.578125 -6.6875 C 5.796875 -6.644531 5.929688 -6.535156 5.984375 -6.359375 C 6.035156 -6.179688 6.046875 -5.988281 6.015625 -5.78125 C 5.984375 -5.570312 5.945312 -5.394531 5.90625 -5.25 C 5.894531 -5.21875 5.890625 -5.1875 5.890625 -5.15625 C 5.660156 -4.257812 5.738281 -3.628906 6.125 -3.265625 C 6.507812 -2.910156 7.066406 -2.742188 7.796875 -2.765625 C 8.523438 -2.796875 9.296875 -2.953125 10.109375 -3.234375 C 10.929688 -3.515625 11.675781 -3.847656 12.34375 -4.234375 C 13.007812 -4.617188 13.46875 -4.992188 13.71875 -5.359375 Z M 1.203125 -2 C 1.492188 -1.800781 1.800781 -1.816406 2.125 -2.046875 C 2.457031 -2.285156 2.78125 -2.625 3.09375 -3.0625 C 3.40625 -3.5 3.660156 -3.929688 3.859375 -4.359375 C 4.066406 -4.796875 4.179688 -5.125 4.203125 -5.34375 C 3.554688 -5.695312 3 -5.757812 2.53125 -5.53125 C 2.070312 -5.3125 1.710938 -4.953125 1.453125 -4.453125 C 1.191406 -3.960938 1.039062 -3.472656 1 -2.984375 C 0.957031 -2.492188 1.023438 -2.164062 1.203125 -2 Z M 1.203125 -2 "/></g></g></g><g fill="#f8f7f2" fill-opacity="1"><g transform="translate(66.86249, 50.788289)"><g><path d="M 5.109375 -25.1875 C 5.859375 -25.082031 6.507812 -24.550781 7.0625 -23.59375 C 7.613281 -22.632812 7.988281 -21.394531 8.1875 -19.875 C 8.382812 -18.363281 8.316406 -16.722656 7.984375 -14.953125 C 7.660156 -13.191406 6.992188 -11.457031 5.984375 -9.75 C 4.972656 -8.039062 3.550781 -6.503906 1.71875 -5.140625 C 1.769531 -4.429688 1.875 -3.726562 2.03125 -3.03125 C 2.195312 -2.34375 2.4375 -1.796875 2.75 -1.390625 C 3.039062 -1.054688 3.378906 -0.953125 3.765625 -1.078125 C 4.160156 -1.203125 4.550781 -1.457031 4.9375 -1.84375 C 5.332031 -2.238281 5.691406 -2.671875 6.015625 -3.140625 C 6.335938 -3.617188 6.570312 -4.03125 6.71875 -4.375 C 6.84375 -4.632812 6.960938 -4.765625 7.078125 -4.765625 C 7.203125 -4.765625 7.238281 -4.632812 7.1875 -4.375 C 6.96875 -3.75 6.703125 -3.144531 6.390625 -2.5625 C 6.078125 -1.988281 5.671875 -1.472656 5.171875 -1.015625 C 4.785156 -0.648438 4.328125 -0.410156 3.796875 -0.296875 C 2.953125 -0.171875 2.265625 -0.394531 1.734375 -0.96875 C 1.210938 -1.539062 0.828125 -2.359375 0.578125 -3.421875 C 0.410156 -4.085938 0.296875 -5.082031 0.234375 -6.40625 C 0.171875 -7.738281 0.171875 -9.234375 0.234375 -10.890625 C 0.296875 -12.554688 0.4375 -14.238281 0.65625 -15.9375 C 0.875 -17.644531 1.171875 -19.207031 1.546875 -20.625 C 1.929688 -22.050781 2.414062 -23.179688 3 -24.015625 C 3.582031 -24.859375 4.285156 -25.25 5.109375 -25.1875 Z M 1.734375 -6.265625 C 3.367188 -7.773438 4.59375 -9.367188 5.40625 -11.046875 C 6.226562 -12.734375 6.742188 -14.382812 6.953125 -16 C 7.171875 -17.613281 7.1875 -19.070312 7 -20.375 C 6.820312 -21.675781 6.539062 -22.695312 6.15625 -23.4375 C 5.769531 -24.175781 5.390625 -24.515625 5.015625 -24.453125 C 4.554688 -24.316406 4.148438 -23.835938 3.796875 -23.015625 C 3.441406 -22.203125 3.140625 -21.171875 2.890625 -19.921875 C 2.648438 -18.671875 2.445312 -17.335938 2.28125 -15.921875 C 2.125 -14.503906 2 -13.128906 1.90625 -11.796875 C 1.8125 -10.472656 1.753906 -9.316406 1.734375 -8.328125 C 1.710938 -7.347656 1.710938 -6.660156 1.734375 -6.265625 Z M 1.734375 -6.265625 "/></g></g></g><g fill="#f8f7f2" fill-opacity="1"><g transform="translate(73.461931, 50.788289)"><g><path d="M 8.265625 -4.453125 C 8.390625 -4.515625 8.515625 -4.5625 8.640625 -4.59375 C 8.765625 -4.632812 8.84375 -4.632812 8.875 -4.59375 C 8.90625 -4.550781 8.851562 -4.445312 8.71875 -4.28125 C 8.28125 -3.789062 7.765625 -3.34375 7.171875 -2.9375 C 6.578125 -2.539062 5.972656 -2.195312 5.359375 -1.90625 C 4.878906 -1.695312 4.363281 -1.523438 3.8125 -1.390625 C 3.269531 -1.265625 2.734375 -1.238281 2.203125 -1.3125 C 1.671875 -1.382812 1.1875 -1.617188 0.75 -2.015625 C 0.226562 -2.535156 -0.0507812 -3.195312 -0.09375 -4 C -0.144531 -4.800781 0.0390625 -5.472656 0.46875 -6.015625 C 1.019531 -6.640625 1.722656 -7.039062 2.578125 -7.21875 C 3.429688 -7.40625 4.195312 -7.269531 4.875 -6.8125 C 5.195312 -6.582031 5.328125 -6.3125 5.265625 -6 C 5.210938 -5.695312 5.050781 -5.410156 4.78125 -5.140625 C 4.507812 -4.878906 4.210938 -4.679688 3.890625 -4.546875 C 3.398438 -4.359375 2.960938 -4.320312 2.578125 -4.4375 C 2.191406 -4.550781 1.890625 -4.703125 1.671875 -4.890625 C 1.515625 -4.835938 1.421875 -4.625 1.390625 -4.25 C 1.285156 -3.53125 1.503906 -2.945312 2.046875 -2.5 C 2.503906 -2.164062 3.078125 -2.070312 3.765625 -2.21875 C 4.453125 -2.375 5.15625 -2.644531 5.875 -3.03125 C 6.59375 -3.425781 7.234375 -3.800781 7.796875 -4.15625 C 7.972656 -4.25 8.128906 -4.347656 8.265625 -4.453125 Z M 3.75 -6.234375 C 3.664062 -6.347656 3.53125 -6.394531 3.34375 -6.375 C 3.164062 -6.351562 2.976562 -6.296875 2.78125 -6.203125 C 2.582031 -6.109375 2.410156 -6.007812 2.265625 -5.90625 C 2.117188 -5.800781 2.054688 -5.726562 2.078125 -5.6875 C 2.078125 -5.664062 2.09375 -5.625 2.125 -5.5625 C 2.164062 -5.5 2.21875 -5.429688 2.28125 -5.359375 C 2.351562 -5.296875 2.445312 -5.25 2.5625 -5.21875 C 2.675781 -5.195312 2.820312 -5.207031 3 -5.25 C 3.28125 -5.320312 3.476562 -5.421875 3.59375 -5.546875 C 3.707031 -5.679688 3.769531 -5.8125 3.78125 -5.9375 C 3.800781 -6.070312 3.789062 -6.171875 3.75 -6.234375 Z M 3.75 -6.234375 "/></g></g></g><g clip-path="url(#99306c552a)"><path fill="#f8f7f2" d="M 81.941406 40.609375 C 80.398438 40.890625 80.167969 41.121094 79.882812 42.667969 C 79.597656 41.121094 79.367188 40.890625 77.820312 40.609375 C 79.367188 40.324219 79.597656 40.09375 79.882812 38.546875 C 80.167969 40.09375 80.398438 40.324219 81.941406 40.609375 Z M 81.941406 40.609375 " fill-opacity="1" fill-rule="nonzero"/></g><g fill="#1c2120" fill-opacity="1"><g transform="translate(50.637886, 62.108894)"><g><path d="M 0.234375 0 L 0.234375 -2.4375 L 0.75 -2.4375 L 0.75 0 Z M 0.234375 0 "/></g></g><g transform="translate(51.625024, 62.108894)"><g><path d="M 1.71875 0 L 0.65625 -1.875 C 0.675781 -1.695312 0.6875 -1.550781 0.6875 -1.4375 L 0.6875 0 L 0.234375 0 L 0.234375 -2.4375 L 0.828125 -2.4375 L 1.90625 -0.546875 C 1.882812 -0.722656 1.875 -0.878906 1.875 -1.015625 L 1.875 -2.4375 L 2.328125 -2.4375 L 2.328125 0 Z M 1.71875 0 "/></g></g><g transform="translate(54.19089, 62.108894)"><g><path d="M 2.25 -1.671875 C 2.25 -1.515625 2.210938 -1.375 2.140625 -1.25 C 2.066406 -1.125 1.960938 -1.023438 1.828125 -0.953125 C 1.691406 -0.890625 1.535156 -0.859375 1.359375 -0.859375 L 0.75 -0.859375 L 0.75 0 L 0.234375 0 L 0.234375 -2.4375 L 1.328125 -2.4375 C 1.617188 -2.4375 1.84375 -2.367188 2 -2.234375 C 2.164062 -2.097656 2.25 -1.910156 2.25 -1.671875 Z M 1.734375 -1.65625 C 1.734375 -1.914062 1.582031 -2.046875 1.28125 -2.046875 L 0.75 -2.046875 L 0.75 -1.25 L 1.296875 -1.25 C 1.429688 -1.25 1.535156 -1.285156 1.609375 -1.359375 C 1.691406 -1.429688 1.734375 -1.53125 1.734375 -1.65625 Z M 1.734375 -1.65625 "/></g></g><g transform="translate(56.560715, 62.108894)"><g><path d="M 0.234375 0 L 0.234375 -2.4375 L 0.75 -2.4375 L 0.75 0 Z M 0.234375 0 "/></g></g><g transform="translate(57.547854, 62.108894)"><g><path d="M 1.90625 0 L 1.34375 -0.921875 L 0.75 -0.921875 L 0.75 0 L 0.234375 0 L 0.234375 -2.4375 L 1.453125 -2.4375 C 1.742188 -2.4375 1.96875 -2.375 2.125 -2.25 C 2.289062 -2.125 2.375 -1.945312 2.375 -1.71875 C 2.375 -1.539062 2.320312 -1.390625 2.21875 -1.265625 C 2.125 -1.140625 1.992188 -1.0625 1.828125 -1.03125 L 2.484375 0 Z M 1.859375 -1.6875 C 1.859375 -1.925781 1.707031 -2.046875 1.40625 -2.046875 L 0.75 -2.046875 L 0.75 -1.328125 L 1.421875 -1.328125 C 1.554688 -1.328125 1.660156 -1.359375 1.734375 -1.421875 C 1.816406 -1.484375 1.859375 -1.570312 1.859375 -1.6875 Z M 1.859375 -1.6875 "/></g></g><g transform="translate(60.113719, 62.108894)"><g><path d="M 0.234375 0 L 0.234375 -2.4375 L 0.75 -2.4375 L 0.75 0 Z M 0.234375 0 "/></g></g><g transform="translate(61.100857, 62.108894)"><g><path d="M 1.71875 0 L 0.65625 -1.875 C 0.675781 -1.695312 0.6875 -1.550781 0.6875 -1.4375 L 0.6875 0 L 0.234375 0 L 0.234375 -2.4375 L 0.828125 -2.4375 L 1.90625 -0.546875 C 1.882812 -0.722656 1.875 -0.878906 1.875 -1.015625 L 1.875 -2.4375 L 2.328125 -2.4375 L 2.328125 0 Z M 1.71875 0 "/></g></g><g transform="translate(63.666723, 62.108894)"><g><path d="M 1.390625 -0.359375 C 1.523438 -0.359375 1.65625 -0.378906 1.78125 -0.421875 C 1.90625 -0.460938 2.003906 -0.515625 2.078125 -0.578125 L 2.078125 -0.90625 L 1.46875 -0.90625 L 1.46875 -1.28125 L 2.53125 -1.28125 L 2.53125 -0.390625 C 2.40625 -0.253906 2.238281 -0.148438 2.03125 -0.078125 C 1.820312 -0.00390625 1.601562 0.03125 1.375 0.03125 C 0.976562 0.03125 0.671875 -0.078125 0.453125 -0.296875 C 0.242188 -0.515625 0.140625 -0.828125 0.140625 -1.234375 C 0.140625 -1.628906 0.25 -1.9375 0.46875 -2.15625 C 0.6875 -2.375 0.992188 -2.484375 1.390625 -2.484375 C 1.960938 -2.484375 2.328125 -2.269531 2.484375 -1.84375 L 2.015625 -1.703125 C 1.960938 -1.828125 1.878906 -1.921875 1.765625 -1.984375 C 1.660156 -2.046875 1.535156 -2.078125 1.390625 -2.078125 C 1.148438 -2.078125 0.96875 -2.003906 0.84375 -1.859375 C 0.71875 -1.710938 0.65625 -1.503906 0.65625 -1.234375 C 0.65625 -0.953125 0.71875 -0.734375 0.84375 -0.578125 C 0.976562 -0.429688 1.160156 -0.359375 1.390625 -0.359375 Z M 1.390625 -0.359375 "/></g></g><g transform="translate(66.430363, 62.108894)"><g/></g><g transform="translate(67.417501, 62.108894)"><g><path d="M 2.234375 -0.703125 C 2.234375 -0.460938 2.144531 -0.28125 1.96875 -0.15625 C 1.789062 -0.03125 1.53125 0.03125 1.1875 0.03125 C 0.875 0.03125 0.625 -0.0195312 0.4375 -0.125 C 0.257812 -0.238281 0.148438 -0.410156 0.109375 -0.640625 L 0.59375 -0.71875 C 0.625 -0.582031 0.6875 -0.484375 0.78125 -0.421875 C 0.882812 -0.367188 1.019531 -0.34375 1.1875 -0.34375 C 1.550781 -0.34375 1.734375 -0.453125 1.734375 -0.671875 C 1.734375 -0.742188 1.710938 -0.800781 1.671875 -0.84375 C 1.628906 -0.882812 1.570312 -0.921875 1.5 -0.953125 C 1.425781 -0.984375 1.28125 -1.019531 1.0625 -1.0625 C 0.882812 -1.101562 0.757812 -1.132812 0.6875 -1.15625 C 0.613281 -1.1875 0.546875 -1.21875 0.484375 -1.25 C 0.429688 -1.289062 0.382812 -1.335938 0.34375 -1.390625 C 0.300781 -1.441406 0.269531 -1.5 0.25 -1.5625 C 0.226562 -1.632812 0.21875 -1.710938 0.21875 -1.796875 C 0.21875 -2.015625 0.300781 -2.179688 0.46875 -2.296875 C 0.632812 -2.421875 0.875 -2.484375 1.1875 -2.484375 C 1.488281 -2.484375 1.710938 -2.429688 1.859375 -2.328125 C 2.015625 -2.234375 2.113281 -2.078125 2.15625 -1.859375 L 1.671875 -1.796875 C 1.640625 -1.898438 1.582031 -1.976562 1.5 -2.03125 C 1.425781 -2.082031 1.316406 -2.109375 1.171875 -2.109375 C 0.867188 -2.109375 0.71875 -2.015625 0.71875 -1.828125 C 0.71875 -1.765625 0.734375 -1.710938 0.765625 -1.671875 C 0.796875 -1.628906 0.84375 -1.59375 0.90625 -1.5625 C 0.96875 -1.53125 1.097656 -1.492188 1.296875 -1.453125 C 1.535156 -1.410156 1.703125 -1.363281 1.796875 -1.3125 C 1.898438 -1.269531 1.984375 -1.222656 2.046875 -1.171875 C 2.109375 -1.117188 2.15625 -1.050781 2.1875 -0.96875 C 2.21875 -0.894531 2.234375 -0.804688 2.234375 -0.703125 Z M 2.234375 -0.703125 "/></g></g><g transform="translate(69.787327, 62.108894)"><g><path d="M 1.34375 -2.046875 L 1.34375 0 L 0.828125 0 L 0.828125 -2.046875 L 0.046875 -2.046875 L 0.046875 -2.4375 L 2.125 -2.4375 L 2.125 -2.046875 Z M 1.34375 -2.046875 "/></g></g><g transform="translate(71.957643, 62.108894)"><g><path d="M 1.4375 -1 L 1.4375 0 L 0.9375 0 L 0.9375 -1 L 0.0625 -2.4375 L 0.59375 -2.4375 L 1.1875 -1.40625 L 1.78125 -2.4375 L 2.3125 -2.4375 Z M 1.4375 -1 "/></g></g><g transform="translate(74.327469, 62.108894)"><g><path d="M 0.234375 0 L 0.234375 -2.4375 L 0.75 -2.4375 L 0.75 -0.390625 L 2.0625 -0.390625 L 2.0625 0 Z M 0.234375 0 "/></g></g><g transform="translate(76.497785, 62.108894)"><g><path d="M 0.234375 0 L 0.234375 -2.4375 L 2.15625 -2.4375 L 2.15625 -2.046875 L 0.75 -2.046875 L 0.75 -1.4375 L 2.046875 -1.4375 L 2.046875 -1.03125 L 0.75 -1.03125 L 0.75 -0.390625 L 2.234375 -0.390625 L 2.234375 0 Z M 0.234375 0 "/></g></g></g><g clip-path="url(#692a515788)"><path fill="#000000" d="M 27.039062 21.0625 L 27.527344 21.0625 C 27.808594 21.210938 27.917969 21.527344 28.046875 21.800781 C 29.226562 24.527344 30.398438 27.261719 31.292969 30.105469 C 31.460938 30.726562 32.1875 30.09375 32.570312 30.078125 C 33.382812 29.664062 34.179688 30.21875 35.003906 30.164062 C 37.027344 29.042969 39.042969 27.875 41.203125 27.03125 C 42.976562 26.566406 44.824219 25.730469 46.6875 26.140625 C 46.96875 26.21875 47.335938 26.277344 47.402344 26.621094 L 47.402344 26.890625 C 43.871094 31.722656 39.605469 36.160156 35.128906 40 C 37.195312 40.839844 39.429688 39.679688 41.019531 38.347656 C 41.371094 38.113281 42.679688 37.707031 42.402344 38.507812 C 41.441406 39.839844 39.632812 40.089844 38.152344 40.53125 C 37.710938 40.703125 36.976562 40.484375 36.757812 41.015625 C 37.976562 41.113281 39.179688 40.925781 40.363281 40.671875 C 41.871094 40.613281 42.984375 39.421875 44.308594 38.914062 C 44.679688 39.386719 43.664062 39.902344 43.488281 40.335938 C 41.707031 41.566406 39.402344 41.414062 37.34375 41.589844 C 36.792969 41.347656 36.597656 41.902344 36.3125 42.214844 C 35.910156 42.347656 35.460938 42.277344 35.042969 42.261719 C 34.695312 42.269531 34.839844 41.644531 34.453125 41.734375 C 33.496094 42.410156 32.917969 43.5625 32.972656 44.742188 C 32.347656 44.695312 32.507812 43.808594 32.667969 43.414062 C 32.800781 43.148438 33.214844 42.480469 32.570312 42.605469 C 31.921875 42.992188 31.628906 43.75 31.433594 44.445312 C 31.394531 44.601562 31.195312 44.570312 31.082031 44.519531 C 30.996094 43.785156 31.546875 43.171875 31.785156 42.515625 C 31.769531 42.328125 31.535156 42.414062 31.402344 42.402344 C 30.980469 43.066406 30.84375 43.867188 30.515625 44.574219 C 30.429688 44.738281 30.164062 44.707031 30.085938 44.554688 C 30.210938 44.019531 30.644531 43.578125 30.570312 42.996094 C 29.570312 43.585938 28.851562 44.882812 27.703125 45.296875 L 27.363281 45.296875 C 27.136719 45.042969 27.636719 45.023438 27.785156 44.917969 C 28.738281 44.15625 29.59375 43.261719 30.347656 42.304688 C 30.5 42.140625 30.582031 41.53125 30.238281 41.832031 C 28.636719 43.355469 26.734375 45.15625 24.363281 44.933594 C 24.164062 43.972656 25.089844 43.21875 25.46875 42.402344 C 23.796875 42.746094 22.058594 42.292969 20.570312 41.519531 C 19.574219 41.128906 18.859375 40.292969 18.492188 39.308594 C 17.355469 38.59375 18.160156 37.140625 17.78125 36.113281 L 17.78125 35.847656 C 18.03125 34.347656 19.179688 33.046875 20.675781 32.640625 C 20.902344 32.199219 20.375 31.640625 20.84375 31.25 C 20.832031 30.148438 21.398438 29.152344 21.585938 28.074219 C 22.046875 27.273438 21.808594 26.164062 22.601562 25.550781 C 22.617188 24.617188 23.292969 23.480469 24.1875 23.195312 C 24.226562 23.003906 24.164062 22.800781 24.234375 22.621094 C 25.132812 22.027344 25.929688 21.230469 27.039062 21.0625 M 26.28125 21.691406 C 25.976562 21.738281 25.769531 22.058594 25.925781 22.359375 C 26.765625 24.171875 27.433594 26.179688 28.863281 27.621094 C 28.945312 26.441406 27.957031 25.324219 27.671875 24.148438 C 27.347656 23.640625 27.355469 22.9375 26.847656 22.558594 C 26.667969 22.28125 26.785156 21.621094 26.28125 21.691406 M 24.875 22.613281 C 24.546875 22.710938 24.496094 23.171875 24.5625 23.460938 C 25.765625 25.285156 26.589844 27.320312 27.613281 29.246094 C 27.910156 30.089844 29.023438 30.765625 29.875 30.640625 C 29.265625 28.285156 27.050781 26.738281 26.441406 24.328125 C 25.898438 23.753906 25.871094 22.53125 24.875 22.613281 M 27.980469 23.339844 C 28.453125 25.703125 29.695312 27.941406 30.304688 30.304688 C 30.394531 32.152344 31.511719 33.773438 31.671875 35.632812 C 32.308594 36.894531 32.460938 38.292969 32.859375 39.628906 C 33.253906 39.75 33.03125 39.207031 33.0625 39 C 32.75 37.230469 32.214844 35.511719 31.839844 33.757812 C 31.332031 32.742188 31.546875 31.515625 30.921875 30.542969 C 30.089844 28.292969 29.21875 26.078125 28.339844 23.839844 C 28.246094 23.664062 28.1875 23.414062 27.980469 23.339844 M 23.96875 23.78125 C 23.46875 24.257812 22.753906 24.851562 23.070312 25.636719 C 24.527344 27.25 25.511719 29.207031 26.734375 31.007812 C 27.609375 31.53125 28.007812 30.273438 27.472656 29.75 C 26.808594 28.675781 26.34375 27.484375 25.839844 26.339844 C 24.984375 25.65625 25 24.125 23.96875 23.78125 M 22.621094 26.363281 C 22.03125 27.195312 21.46875 28.75 22.523438 29.484375 C 24.097656 30.546875 24.800781 32.390625 26.265625 33.550781 C 26.460938 33.667969 26.839844 33.945312 26.992188 33.625 C 27.363281 31.757812 25.816406 30.488281 25.003906 29.027344 C 24.511719 28.082031 23.753906 27.328125 23.105469 26.492188 C 23 26.335938 22.800781 26.308594 22.621094 26.363281 M 45.542969 26.496094 C 45.089844 26.714844 44.679688 27.054688 44.4375 27.507812 C 43.464844 29.132812 41.839844 30.324219 41.15625 32.121094 C 41.113281 32.742188 41.785156 31.960938 41.980469 31.808594 C 43.472656 30.1875 44.941406 28.519531 46.234375 26.71875 C 46.183594 26.386719 45.785156 26.464844 45.542969 26.496094 M 43.394531 26.8125 C 42.777344 26.96875 42.070312 27.207031 41.863281 27.882812 C 41.304688 29.269531 40.667969 30.632812 39.800781 31.839844 C 40.492188 31.957031 41.167969 31.101562 41.402344 30.4375 C 42.296875 29.269531 43.628906 28.417969 44.148438 26.960938 C 44.128906 26.613281 43.597656 26.832031 43.394531 26.8125 M 41.40625 27.425781 C 40.84375 27.582031 40.15625 27.773438 40 28.417969 C 39.5625 29.621094 38.539062 30.535156 38.308594 31.816406 C 38.566406 32.0625 38.945312 31.875 39.222656 31.769531 C 40.195312 30.699219 40.675781 29.285156 41.296875 27.992188 C 41.410156 27.886719 41.773438 27.328125 41.40625 27.425781 M 46.015625 27.914062 C 44.652344 29.558594 43.167969 31.140625 41.726562 32.726562 C 39.265625 34.53125 37.042969 36.617188 35.191406 39.050781 C 35.164062 39.273438 35.574219 39.0625 35.59375 38.964844 C 37.519531 37.175781 39.429688 35.367188 41.40625 33.636719 C 42.980469 31.832031 44.628906 30.089844 46.121094 28.214844 C 46.160156 28.105469 46.210938 27.785156 46.015625 27.914062 M 39.292969 28.527344 C 38.394531 28.804688 37.285156 29.144531 37.046875 30.167969 C 37.109375 31.222656 36.347656 32.195312 36.585938 33.242188 C 37.75 32.570312 37.820312 30.917969 38.746094 29.988281 C 38.875 29.523438 39.511719 28.84375 39.292969 28.527344 M 21.738281 29.710938 C 21.332031 30.558594 21.320312 31.628906 21.292969 32.585938 C 23.359375 33.503906 25.273438 34.996094 26.933594 36.566406 C 27.074219 36.789062 27.582031 36.953125 27.609375 36.578125 C 27.136719 35.929688 27.058594 35.066406 26.515625 34.460938 C 25.070312 32.757812 23.695312 30.808594 21.738281 29.710938 M 36.300781 30.125 C 35.535156 30.386719 34.792969 30.957031 34.441406 31.679688 C 34.753906 33.773438 34.445312 35.933594 33.863281 37.964844 C 34.9375 35.777344 36.003906 33.492188 36.53125 31.085938 C 36.4375 30.851562 36.75 30.015625 36.300781 30.125 M 33.253906 30.378906 C 32.296875 30.546875 32.078125 32.410156 32.609375 32.738281 C 33.0625 31.941406 33.988281 31.480469 34.308594 30.609375 C 34.039062 30.328125 33.609375 30.3125 33.253906 30.378906 M 28.003906 30.605469 C 27.390625 31.375 28.328125 32.070312 28.464844 32.820312 C 29.066406 33.875 29.621094 34.953125 30.054688 36.089844 C 30.664062 37.460938 31.898438 38.480469 32.304688 39.9375 C 32.695312 39.980469 32.394531 39.46875 32.339844 39.277344 C 31.726562 36.652344 31.136719 33.984375 29.96875 31.5625 C 29.351562 31.203125 28.664062 30.847656 28.003906 30.605469 M 32.027344 30.742188 C 31.429688 30.785156 31.324219 31.953125 31.898438 31.941406 C 31.75 31.589844 32.773438 30.59375 32.027344 30.742188 M 27.578125 31.898438 C 26.972656 33.023438 27.910156 34.269531 28.890625 34.761719 C 29.097656 34.351562 28.570312 33.898438 28.484375 33.476562 C 28.199219 32.96875 28.132812 32.105469 27.578125 31.898438 M 33.84375 32.15625 C 32.429688 32.625 32.546875 34.589844 32.960938 35.648438 C 33.367188 35.132812 32.945312 34.125 33.269531 33.601562 C 33.761719 34.558594 32.945312 36.21875 33.570312 37.125 C 34.195312 35.832031 34.152344 34.34375 34.144531 32.941406 C 34.074219 32.738281 34.238281 32.0625 33.84375 32.15625 M 38.207031 32.355469 C 37.480469 32.578125 37.3125 33.453125 36.695312 33.84375 C 35.230469 34.84375 35.199219 36.761719 34.320312 38.171875 C 34.222656 38.730469 33.695312 39.632812 34.25 40.019531 C 35.210938 38.039062 36.878906 36.5 38.339844 34.875 C 39.148438 34.246094 40.253906 33.675781 40.339844 32.523438 C 39.734375 32.199219 38.90625 32.410156 38.207031 32.355469 M 20.410156 33.152344 C 19.894531 33.230469 19.839844 33.722656 20.398438 33.761719 C 20.996094 34.203125 21.050781 32.839844 20.410156 33.152344 M 21.386719 33.316406 C 20.894531 33.726562 21.613281 34.476562 21.785156 34.949219 C 24.339844 36.742188 26.929688 38.972656 30.078125 39.457031 C 26.964844 37.742188 24.855469 34.367188 21.386719 33.316406 M 19.425781 33.757812 C 18.9375 33.902344 18.617188 34.484375 18.742188 34.96875 C 19.585938 35.363281 20.527344 35.472656 21.410156 35.753906 C 21.5 34.699219 20.414062 33.804688 19.425781 33.757812 M 27.449219 34.109375 C 27.015625 34.839844 27.644531 35.59375 27.917969 36.257812 C 28.261719 36.921875 28.238281 37.824219 28.898438 38.292969 C 30.023438 38.820312 30.949219 39.722656 32.097656 40.183594 C 30.785156 38.066406 29.464844 35.59375 27.449219 34.109375 M 18.804688 35.417969 C 17.828125 35.578125 18.105469 36.742188 18.292969 37.410156 C 19.5625 37.429688 20.917969 37.578125 22.144531 38.039062 C 22.703125 37.941406 22.984375 37.300781 22.417969 36.960938 C 22.0625 35.882812 20.792969 36.035156 19.9375 35.644531 C 19.628906 35.375 19.191406 35.382812 18.804688 35.417969 M 22.421875 35.964844 C 22.179688 36.414062 23.105469 36.695312 23.246094 37.117188 C 23.914062 37.503906 24.46875 38.109375 25.226562 38.335938 C 26.914062 39.25 28.773438 40.316406 30.785156 40.246094 C 31.027344 40.140625 30.761719 39.761719 30.527344 39.980469 C 29.238281 39.9375 28.097656 39.203125 26.929688 38.722656 C 25.273438 38.082031 23.957031 36.707031 22.421875 35.964844 M 19.175781 37.820312 C 18.5 37.785156 18.03125 38.21875 18.476562 38.816406 C 18.96875 38.933594 18.953125 39.757812 19.53125 39.613281 C 20.386719 39.40625 21.230469 39.011719 22.136719 39.210938 C 22.433594 39.398438 22.710938 38.929688 22.347656 38.828125 C 21.476562 38.113281 20.304688 37.714844 19.175781 37.820312 M 23.050781 37.820312 C 22.011719 38.316406 23.242188 39.136719 23.605469 39.671875 C 24.769531 39.695312 25.96875 39.53125 27.125 39.832031 C 26.515625 39.398438 25.648438 39.4375 25.046875 38.945312 C 24.351562 38.652344 23.832031 37.816406 23.050781 37.820312 M 21.488281 39.558594 C 20.832031 39.585938 19.988281 39.566406 19.511719 40.085938 C 19.808594 40.648438 20.6875 41.136719 21.300781 40.699219 C 21.820312 40.382812 22.484375 40.351562 22.992188 40.042969 C 22.957031 39.378906 21.929688 39.582031 21.488281 39.558594 M 25.121094 39.847656 C 24.90625 39.980469 24.648438 40.03125 24.429688 40.148438 C 24.421875 40.429688 24.808594 40.574219 24.890625 40.851562 C 26.15625 40.546875 27.46875 40.425781 28.773438 40.507812 C 28.996094 40.816406 29.234375 40.320312 28.976562 40.363281 C 27.6875 40.203125 26.414062 39.886719 25.121094 39.847656 M 23.417969 40.234375 C 22.632812 40.511719 21.875 40.859375 21.113281 41.1875 C 20.878906 41.414062 21.363281 41.484375 21.515625 41.558594 C 22.554688 42.25 23.613281 41.410156 24.625 41.128906 C 24.789062 40.855469 24.316406 40.816406 24.167969 40.691406 C 23.832031 40.632812 23.835938 40.03125 23.417969 40.234375 M 28.007812 40.648438 C 27.003906 40.640625 26.074219 41 25.097656 41.253906 C 25.011719 41.820312 25.703125 42.101562 26.066406 41.707031 C 26.574219 41.738281 27.078125 41.582031 27.46875 41.261719 C 27.78125 41.390625 28.585938 40.6875 28.007812 40.648438 M 24.570312 41.457031 C 24.261719 41.535156 23.675781 41.585938 23.683594 41.964844 C 24.15625 42.476562 25.746094 41.703125 24.570312 41.457031 Z M 24.570312 41.457031 " fill-opacity="1" fill-rule="nonzero"/></g></svg>